<svg width="35" height="35" viewBox="0 0 35 35" fill="none" xmlns="http://www.w3.org/2000/svg">
<path fill-rule="evenodd" clip-rule="evenodd" d="M18.8126 2.18751C22.3126 2.40626 25.5939 4.15626 28.0001 6.56251C30.8439 9.62501 32.3751 13.3438 32.3751 17.7188C32.3751 21.2188 31.0626 24.5 28.8751 27.3438C26.6876 29.9688 23.6251 31.9375 20.1251 32.5938C16.6251 33.25 13.1251 32.8125 10.0626 31.0625C7.00011 29.3125 4.59386 26.6875 3.28136 23.4063C1.96886 20.125 1.75011 16.4063 2.84386 13.125C3.93761 9.625 5.90636 6.78126 8.96886 4.81251C11.8126 2.84376 15.3126 1.96876 18.8126 2.18751ZM19.9064 30.4063C22.7501 29.75 25.3751 28.2188 27.3439 25.8125C29.0939 23.4063 30.1876 20.5625 29.9689 17.5C29.9689 14 28.6564 10.5 26.2501 8.09376C24.0626 5.90626 21.4376 4.59376 18.3751 4.37501C15.5314 4.15626 12.4689 4.81251 10.0626 6.56251C7.65636 8.31251 5.90636 10.7188 5.03136 13.7813C4.15636 16.625 4.15636 19.6875 5.46886 22.5313C6.78136 25.375 8.75011 27.5625 11.3751 29.0938C14.0001 30.625 17.0626 31.0625 19.9064 30.4063ZM17.2814 16.4063L22.5314 10.9375L24.0626 12.4688L18.8126 17.9375L24.0626 23.4063L22.5314 24.9375L17.2814 19.4688L12.0314 24.9375L10.5001 23.4063L15.7501 17.9375L10.5001 12.4688L12.0314 10.9375L17.2814 16.4063Z" fill="#6A5ACD"/>
</svg>
