<svg width="21" height="20" viewBox="0 0 21 20" fill="none" xmlns="http://www.w3.org/2000/svg">
<path d="M19.2904 5.9189L5.40608 4.25016L4.5597 0.767035C4.53028 0.650212 4.46647 0.547056 4.37802 0.473314C4.28956 0.399571 4.18131 0.359295 4.0698 0.358633H1.98554C1.91021 0.248495 1.81242 0.158801 1.69983 0.0965802C1.58724 0.0343594 1.46292 0.00130253 1.3366 0C1.11472 0 0.901929 0.0957332 0.745036 0.26614C0.588142 0.436546 0.5 0.667667 0.5 0.908659C0.5 1.14965 0.588142 1.38077 0.745036 1.55118C0.901929 1.72158 1.11472 1.81732 1.3366 1.81732C1.60615 1.81732 1.83392 1.67094 1.98688 1.45722H3.67964L7.20395 15.9489C6.81951 16.3934 6.6051 16.98 6.60421 17.5898C6.60395 17.9064 6.66114 18.2198 6.77252 18.5123C6.8839 18.8048 7.04728 19.0706 7.25332 19.2945C7.45936 19.5183 7.70401 19.6959 7.97328 19.8169C8.24255 19.938 8.53115 20.0002 8.82258 20C9.41141 20.0002 9.97621 19.7464 10.3928 19.2945C10.8094 18.8425 11.0438 18.2294 11.0443 17.5898C11.0432 17.4065 11.0221 17.224 10.9816 17.046H14.7101C14.6703 17.2241 14.6495 17.4066 14.6481 17.5898C14.6481 18.9219 15.6428 20 16.8692 20C18.0956 20 19.0882 18.9219 19.0882 17.5898C19.0884 16.9502 18.8547 16.3366 18.4384 15.8841C18.0222 15.4316 17.4575 15.1771 16.8685 15.1768C16.2284 15.1768 15.6556 15.4768 15.2499 15.9474H10.4412C10.2348 15.7048 9.98453 15.5111 9.706 15.3785C9.42746 15.2459 9.1267 15.1772 8.82258 15.1768C8.56651 15.1768 8.32527 15.2338 8.09682 15.3202L7.97418 14.8181H17.8012C18.1788 14.8097 18.5429 14.6637 18.835 14.4036C19.1271 14.1434 19.3302 13.7842 19.4117 13.3836L20.473 7.67621C20.4909 7.57637 20.5 7.47491 20.5 7.3732C20.5005 7.0109 20.377 6.66134 20.1534 6.39243C19.9299 6.12353 19.6223 5.95522 19.2904 5.9189ZM16.8699 17.805C16.8171 17.8048 16.7665 17.7821 16.729 17.7417C16.6916 17.7013 16.6703 17.6464 16.6697 17.5891C16.6718 17.4676 16.7607 17.371 16.8706 17.371C16.9804 17.371 17.0693 17.4676 17.0707 17.5884C17.07 17.6456 17.0486 17.7002 17.0112 17.7405C16.9737 17.7807 16.9226 17.8048 16.8699 17.805ZM18.0694 12.3194L18.7082 11.6241L18.4939 12.7805L18.0694 12.3194ZM8.32998 5.70519L9.02743 6.46491L8.15815 7.40906L7.28684 6.46491L8.01933 5.66859L8.32998 5.70519ZM11.361 6.06968L11.7236 6.46491L10.8543 7.40906L9.98298 6.46491L10.4466 5.95989L11.361 6.06968ZM6.22415 7.61839L6.81042 6.98309L7.6797 7.92871L6.81042 8.87287L6.42968 8.46081L6.22415 7.61839ZM6.02536 6.79865L5.80433 5.89109L6.33332 6.46564L6.02536 6.79865ZM14.4184 9.39252L13.5491 10.3367L12.6778 9.39252L13.5484 8.44617L14.4184 9.39252ZM14.0255 7.92871L14.8961 6.98309L15.7654 7.92871L14.8961 8.87433L14.0255 7.92871ZM12.2013 8.87287L11.33 7.92871L12.2007 6.98236L13.07 7.92798L12.2013 8.87287ZM11.7229 9.39252L10.8536 10.3367L9.98298 9.39252L10.8536 8.44617L11.7229 9.39252ZM9.50588 8.87287L8.63457 7.92871L9.5052 6.98236L10.3745 7.92798L9.50588 8.87287ZM9.02743 9.39252L8.15815 10.3367L7.28684 9.39252L8.15747 8.44617L9.02743 9.39252ZM6.81042 9.90998L7.6797 10.8556L7.15139 11.4287L6.7875 9.93266L6.81042 9.90998ZM7.35086 12.2499L8.15747 11.3738L9.02676 12.3194L8.15747 13.2636L7.396 12.4365L7.35086 12.2499ZM8.63524 10.8556L9.50453 9.90924L10.3758 10.8549L9.50655 11.799L8.63524 10.8556ZM10.8536 11.3731L11.7242 12.3187L10.8536 13.2628L9.98298 12.3187L10.8536 11.3731ZM11.3307 10.8549L12.2013 9.90851L13.0706 10.8541L12.2013 11.7983L11.3307 10.8549ZM13.5477 11.3723L14.419 12.3179L13.5497 13.2621L12.6791 12.3165L13.5477 11.3723ZM14.0262 10.8541L14.8955 9.90778L15.7668 10.8534L14.8975 11.7976L14.0262 10.8541ZM15.3739 9.39032L16.2432 8.44397L17.1145 9.38959L16.2452 10.3337L15.3739 9.39032ZM16.7216 7.92652L17.5909 6.98017L18.4616 7.92871L17.5923 8.87433L16.7216 7.92652ZM16.2432 7.40833L15.4649 6.56225L16.8679 6.73059L16.2432 7.40833ZM14.4197 6.46491L13.5504 7.41052L12.6791 6.46491L12.8745 6.25265L14.3928 6.43563L14.4197 6.46491ZM9.50723 5.94525L9.4048 5.83547L9.58876 5.85743L9.50723 5.94525ZM6.81176 5.94672L6.37375 5.47098L7.16217 5.56613L6.81176 5.94672ZM9.50723 12.8376L10.3192 13.7195H8.69522L9.50723 12.8376ZM12.2027 12.8376L13.0147 13.7203H11.3893L12.2027 12.8376ZM14.8982 12.8376L15.7115 13.721H14.0848L14.8982 12.8376ZM15.3746 12.3194L16.2452 11.3731L17.1145 12.3187L16.2452 13.2628L15.3746 12.3194ZM16.7223 10.8556L17.5929 9.90998L18.4622 10.8541L17.5929 11.8005L16.7223 10.8556ZM18.9407 10.3359L18.07 9.39179L18.9393 8.44617L19.2392 8.77113L18.9494 10.3257L18.9407 10.3359ZM19.2776 7.04238L18.9407 7.40833L18.4959 6.92747L19.1812 7.00944C19.2176 7.0153 19.248 7.0292 19.2776 7.04238ZM8.82393 17.8043C8.77294 17.8011 8.72502 17.7768 8.68997 17.7365C8.65492 17.6961 8.6354 17.6427 8.6354 17.5873C8.6354 17.5318 8.65492 17.4784 8.68997 17.4381C8.72502 17.3978 8.77294 17.3735 8.82393 17.3703C8.87473 17.3735 8.92249 17.3977 8.95742 17.4379C8.99235 17.4781 9.0118 17.5313 9.0118 17.5865C9.0118 17.6418 8.99235 17.695 8.95742 17.7352C8.92249 17.7754 8.87473 17.8011 8.82393 17.8043ZM17.8018 13.7203H16.7796L17.5929 12.8369L18.2196 13.5175C18.0936 13.642 17.9346 13.7298 17.8018 13.7203Z" fill="white"/>
</svg>
