<svg width="30" height="30" viewBox="0 0 30 30" fill="none" xmlns="http://www.w3.org/2000/svg">
<g clip-path="url(#clip0_129_1063)">
<path d="M28.125 4.6875H1.875C1.37772 4.6875 0.900806 4.88504 0.549175 5.23667C0.197544 5.58831 0 6.06522 0 6.5625L0 23.4375C0 23.9348 0.197544 24.4117 0.549175 24.7633C0.900806 25.115 1.37772 25.3125 1.875 25.3125H28.125C28.6223 25.3125 29.0992 25.115 29.4508 24.7633C29.8025 24.4117 30 23.9348 30 23.4375V6.5625C30 6.06522 29.8025 5.58831 29.4508 5.23667C29.0992 4.88504 28.6223 4.6875 28.125 4.6875ZM25.6875 7.03125L15.7875 16.05C15.5729 16.2477 15.2918 16.3574 15 16.3574C14.7082 16.3574 14.4271 16.2477 14.2125 16.05L4.3125 7.03125H25.6875ZM2.34375 22.9688V8.4L12.6375 17.775C13.2814 18.368 14.1247 18.6971 15 18.6971C15.8753 18.6971 16.7186 18.368 17.3625 17.775L27.6562 8.4V22.9688H2.34375Z" fill="white"/>
</g>
<defs>
<clipPath id="clip0_129_1063">
<rect width="30" height="30" fill="white"/>
</clipPath>
</defs>
</svg>
