<svg width="40" height="34" viewBox="0 0 40 34" fill="none" xmlns="http://www.w3.org/2000/svg">
<g clip-path="url(#clip0_129_1092)">
<path d="M7.27415 33.831V31.5807C7.27415 30.7179 6.79392 30.1555 5.97079 30.1555C5.5593 30.1555 5.11345 30.3055 4.80475 30.7931C4.5648 30.3805 4.22189 30.1555 3.70745 30.1555C3.36439 30.1555 3.02164 30.2679 2.74716 30.6805V30.2305H2.02698V33.831H2.74716V31.8432C2.74716 31.2057 3.05585 30.9055 3.53608 30.9055C4.01599 30.9055 4.25626 31.2431 4.25626 31.8432V33.831H4.97644V31.8432C4.97644 31.2057 5.31919 30.9055 5.76505 30.9055C6.24527 30.9055 6.48523 31.2431 6.48523 31.8432V33.831H7.27415ZM17.9395 30.2305H16.7737V29.1428H16.0535V30.2305H15.4019V30.9429H16.0533V32.5934C16.0533 33.4186 16.362 33.906 17.1852 33.906C17.4938 33.906 17.8366 33.7936 18.0769 33.6436L17.871 32.9684C17.6652 33.1184 17.4253 33.156 17.2537 33.156C16.9108 33.156 16.7737 32.931 16.7737 32.5558V30.9429H17.9395V30.2305ZM24.0441 30.1553C23.6326 30.1553 23.3582 30.3805 23.1867 30.6805V30.2305H22.4665V33.831H23.1867V31.8057C23.1867 31.2057 23.4267 30.8681 23.8725 30.8681C24.0097 30.8681 24.1812 30.9057 24.3184 30.9431L24.5241 30.193C24.387 30.1555 24.1812 30.1555 24.0441 30.1555M14.8189 30.5306C14.4758 30.268 13.9957 30.1556 13.4813 30.1556C12.6583 30.1556 12.1097 30.6057 12.1097 31.3183C12.1097 31.9185 12.5212 32.2559 13.2413 32.3685L13.5842 32.4061C13.9615 32.4809 14.1673 32.5935 14.1673 32.7811C14.1673 33.0436 13.8929 33.2312 13.4127 33.2312C12.9325 33.2312 12.5554 33.0436 12.3153 32.8561L11.9724 33.4562C12.3496 33.7562 12.8641 33.9062 13.3783 33.9062C14.3386 33.9062 14.8874 33.4188 14.8874 32.7436C14.8874 32.1059 14.4416 31.7683 13.7556 31.6559L13.4127 31.6183C13.104 31.5807 12.8641 31.5059 12.8641 31.2809C12.8641 31.0183 13.104 30.8683 13.4813 30.8683C13.8929 30.8683 14.3044 31.0557 14.5102 31.1683L14.8189 30.5306ZM33.9552 30.1556C33.5436 30.1556 33.2693 30.3806 33.0977 30.6807V30.2306H32.3775V33.8312H33.0977V31.8059C33.0977 31.2059 33.3378 30.8683 33.7835 30.8683C33.9209 30.8683 34.0924 30.9058 34.2295 30.9433L34.4353 30.1932C34.2981 30.1556 34.0924 30.1556 33.9552 30.1556ZM24.7642 32.0309C24.7642 33.1186 25.4501 33.9062 26.5133 33.9062C26.9934 33.9062 27.3363 33.7938 27.6792 33.4938L27.3363 32.8561C27.0619 33.0812 26.7876 33.1936 26.4789 33.1936C25.8959 33.1936 25.4844 32.7436 25.4844 32.0309C25.4844 31.3559 25.8959 30.9057 26.4789 30.8683C26.7876 30.8683 27.0619 30.9807 27.3363 31.2059L27.6792 30.5682C27.3363 30.268 26.9934 30.1556 26.5133 30.1556C25.4501 30.1556 24.7642 30.9433 24.7642 32.0309ZM31.4174 32.0309V30.2306H30.6972V30.6807C30.4571 30.3432 30.1142 30.1556 29.6684 30.1556C28.7424 30.1556 28.0222 30.9433 28.0222 32.0309C28.0222 33.1186 28.7424 33.9062 29.6684 33.9062C30.1484 33.9062 30.4915 33.7188 30.6972 33.3812V33.8312H31.4174V32.0309ZM28.7766 32.0309C28.7766 31.3933 29.1539 30.8683 29.7711 30.8683C30.3542 30.8683 30.7658 31.3559 30.7658 32.0309C30.7658 32.6685 30.3542 33.1936 29.7711 33.1936C29.1539 33.156 28.7766 32.6685 28.7766 32.0309ZM20.1688 30.1556C19.2085 30.1556 18.5226 30.9057 18.5226 32.0309C18.5226 33.1562 19.2084 33.9062 20.203 33.9062C20.6831 33.9062 21.1633 33.7562 21.5406 33.4188L21.1975 32.8561C20.9232 33.0812 20.5803 33.2312 20.2374 33.2312C19.7916 33.2312 19.3457 33.0062 19.2427 32.3684H21.6778V32.0685C21.7121 30.9057 21.0949 30.1556 20.1688 30.1556ZM20.1687 30.8307C20.6144 30.8307 20.9232 31.1309 20.9916 31.6935H19.277C19.3455 31.2059 19.6542 30.8307 20.1687 30.8307ZM38.036 32.0309V28.8054H37.3159V30.6807C37.0757 30.3432 36.7328 30.1556 36.287 30.1556C35.3611 30.1556 34.6409 30.9433 34.6409 32.0309C34.6409 33.1186 35.3611 33.9062 36.287 33.9062C36.7672 33.9062 37.1101 33.7188 37.3159 33.3812V33.8312H38.036V32.0309ZM35.3954 32.0309C35.3954 31.3933 35.7725 30.8683 36.3899 30.8683C36.973 30.8683 37.3844 31.3559 37.3844 32.0309C37.3844 32.6685 36.973 33.1936 36.3899 33.1936C35.7725 33.156 35.3954 32.6685 35.3954 32.0309ZM11.3206 32.0309V30.2306H10.6004V30.6807C10.3603 30.3432 10.0174 30.1556 9.57154 30.1556C8.64562 30.1556 7.92543 30.9433 7.92543 32.0309C7.92543 33.1186 8.64562 33.9062 9.57154 33.9062C10.0518 33.9062 10.3947 33.7188 10.6004 33.3812V33.8312H11.3206V32.0309ZM8.64562 32.0309C8.64562 31.3933 9.02289 30.8683 9.64012 30.8683C10.2231 30.8683 10.6348 31.3559 10.6348 32.0309C10.6348 32.6685 10.2231 33.1936 9.64012 33.1936C9.02289 33.156 8.64562 32.6685 8.64562 32.0309Z" fill="black"/>
<path d="M14.5789 2.88794H25.3816V24.1168H14.5789V2.88794Z" fill="#FF5F00"/>
<path d="M15.2648 13.5024C15.2648 9.18923 17.1166 5.36346 19.963 2.88795C17.8712 1.08766 15.2306 0 12.3498 0C5.525 0 0.00366211 6.0385 0.00366211 13.5024C0.00366211 20.9664 5.525 27.0049 12.3497 27.0049C15.2304 27.0049 17.871 25.9172 19.963 24.1168C17.1166 21.6788 15.2648 17.8157 15.2648 13.5024Z" fill="#EB001B"/>
<path d="M39.9566 13.5024C39.9566 20.9662 34.4353 27.0049 27.6106 27.0049C24.7299 27.0049 22.0893 25.9172 19.9973 24.1168C22.878 21.6414 24.6957 17.8157 24.6957 13.5024C24.6957 9.18923 22.8437 5.36346 19.9973 2.88795C22.0891 1.08766 24.7299 0 27.6106 0C34.4353 0 39.9566 6.07609 39.9566 13.5024Z" fill="#F79E1B"/>
</g>
<defs>
<clipPath id="clip0_129_1092">
<rect width="40" height="34" fill="white"/>
</clipPath>
</defs>
</svg>
