<svg width="100" height="100" viewBox="0 0 100 100" fill="none" xmlns="http://www.w3.org/2000/svg">
<g clip-path="url(#clip0_123_478)">
<path d="M88.8889 19.4443H11.1111C8.16426 19.4443 5.33811 20.615 3.25437 22.6987C1.17063 24.7824 0 27.6086 0 30.5554L0 72.2221C0 75.169 1.17063 77.9951 3.25437 80.0788C5.33811 82.1626 8.16426 83.3332 11.1111 83.3332H42.8222C44.2667 84.9888 46.925 86.111 50 86.111C53.075 86.111 55.7361 84.9888 57.1778 83.3332H88.8889C91.8357 83.3332 94.6619 82.1626 96.7456 80.0788C98.8294 77.9951 100 75.169 100 72.2221V30.5554C100 27.6086 98.8294 24.7824 96.7456 22.6987C94.6619 20.615 91.8357 19.4443 88.8889 19.4443Z" fill="#6A5ACD"/>
<path d="M55.5556 74.9999C55.5556 76.4733 54.9703 77.8864 53.9284 78.9283C52.8865 79.9701 51.4734 80.5554 50 80.5554C48.5266 80.5554 47.1135 79.9701 46.0716 78.9283C45.0298 77.8864 44.4445 76.4733 44.4445 74.9999V24.9999C44.4445 23.5265 45.0298 22.1134 46.0716 21.0715C47.1135 20.0297 48.5266 19.4443 50 19.4443C51.4734 19.4443 52.8865 20.0297 53.9284 21.0715C54.9703 22.1134 55.5556 23.5265 55.5556 24.9999V74.9999Z" fill="#292F33"/>
<path d="M50 72.2223C50 73.6957 49.4147 75.1088 48.3728 76.1507C47.3309 77.1925 45.9179 77.7779 44.4444 77.7779H11.1111C9.63767 77.7779 8.2246 77.1925 7.18273 76.1507C6.14086 75.1088 5.55554 73.6957 5.55554 72.2223V22.2223C5.55554 20.7489 6.14086 19.3358 7.18273 18.2939C8.2246 17.2521 9.63767 16.6667 11.1111 16.6667H44.4444C45.9179 16.6667 47.3309 17.2521 48.3728 18.2939C49.4147 19.3358 50 20.7489 50 22.2223V72.2223Z" fill="#99AAB5"/>
<path d="M50 72.2222C47.225 66.6722 39.8416 66.6666 38.8889 66.6666C33.3333 66.6666 25 72.2222 16.6666 72.2222C13.8889 72.2222 11.1111 69.7333 11.1111 66.6666V22.2222C11.1111 19.1555 13.8889 16.6666 16.6666 16.6666C25.7083 16.6666 33.3333 11.1111 38.8889 11.1111C47.2222 11.1111 50 16.3778 50 19.4444V72.2222Z" fill="#E1E8ED"/>
<path d="M94.4444 72.2223C94.4444 73.6957 93.8591 75.1088 92.8173 76.1507C91.7754 77.1925 90.3623 77.7779 88.8889 77.7779H55.5556C54.0821 77.7779 52.6691 77.1925 51.6272 76.1507C50.5853 75.1088 50 73.6957 50 72.2223V22.2223C50 20.7489 50.5853 19.3358 51.6272 18.2939C52.6691 17.2521 54.0821 16.6667 55.5556 16.6667H88.8889C90.3623 16.6667 91.7754 17.2521 92.8173 18.2939C93.8591 19.3358 94.4444 20.7489 94.4444 22.2223V72.2223Z" fill="#99AAB5"/>
<path d="M50 72.2222C52.775 66.6722 60.1583 66.6666 61.1111 66.6666C66.6667 66.6666 75 72.2222 83.3333 72.2222C86.1111 72.2222 88.8889 69.7333 88.8889 66.6666V22.2222C88.8889 19.1555 86.1111 16.6666 83.3333 16.6666C74.2889 16.6666 66.6667 11.1111 61.1111 11.1111C52.7778 11.1111 50 16.3778 50 19.4444V72.2222Z" fill="#CCD6DD"/>
</g>
<defs>
<clipPath id="clip0_123_478">
<rect width="100" height="100" fill="white"/>
</clipPath>
</defs>
</svg>
