<svg width="31" height="35" viewBox="0 0 31 35" fill="none" xmlns="http://www.w3.org/2000/svg">
<path fill-rule="evenodd" clip-rule="evenodd" d="M26.0086 2.63918C24.3747 0.791865 21.4222 0 17.6439 0H6.68058C5.90773 0 5.25064 0.55779 5.12937 1.31356L0.563889 30.0372C0.473483 30.6037 0.915626 31.1167 1.49444 31.1167H8.26269L9.96272 20.42L9.90981 20.7547C10.0311 19.9989 10.6838 19.4411 11.4555 19.4411H14.6715C20.9911 19.4411 25.938 16.8949 27.3834 9.52968C27.4264 9.31093 27.4958 8.89206 27.4958 8.89206C27.906 6.16648 27.4925 4.31697 26.0086 2.63918ZM29.2091 10.2871C27.637 17.5386 22.625 21.3765 14.6715 21.3765H11.7874L9.63642 35H14.3143C14.9901 35 15.5645 34.5122 15.6704 33.8505L15.7255 33.5617L16.8016 26.8003L16.871 26.4273C16.9758 25.7656 17.5513 25.2778 18.226 25.2778H19.0804C24.6073 25.2778 28.9357 23.0499 30.2003 16.6078C30.7074 14.0222 30.4638 11.8544 29.2091 10.2871Z" fill="#022B87"/>
</svg>
