<svg width="35" height="35" viewBox="0 0 35 35" fill="none" xmlns="http://www.w3.org/2000/svg">
<g clip-path="url(#clip0_129_1100)">
<path d="M33.1333 6.51001H1.86667C0.835735 6.51001 0 7.34574 0 8.37668V26.6233C0 27.6543 0.835735 28.49 1.86667 28.49H33.1333C34.1643 28.49 35 27.6543 35 26.6233V8.37668C35 7.34574 34.1643 6.51001 33.1333 6.51001Z" fill="#00425F"/>
<path d="M7.29229 21.9456C10.263 21.9456 12.6713 19.5374 12.6713 16.5667C12.6713 13.596 10.263 11.1877 7.29229 11.1877C4.32157 11.1877 1.91333 13.596 1.91333 16.5667C1.91333 19.5374 4.32157 21.9456 7.29229 21.9456Z" fill="#EE312A"/>
<path d="M7.29233 18.8707C6.08928 16.1435 5.20704 13.5959 5.20704 13.5959H3.36255C3.36255 13.5959 4.4852 16.8659 6.5705 20.9552H8.01416C10.0995 16.8659 11.2221 13.5959 11.2221 13.5959H9.37763C9.37763 13.5959 8.49539 16.1435 7.29233 18.8707Z" fill="white"/>
<path d="M33.0421 18.5316H29.4334C29.4334 18.5316 29.5136 19.7347 31.1175 19.7347C31.9194 19.7347 32.7214 19.4939 32.7214 19.4939L32.8818 20.777C32.8818 20.777 32.0798 21.0978 30.9571 21.0978C29.3533 21.0978 27.9098 20.2958 27.9098 18.0505C27.9098 16.2862 29.0324 15.1635 30.6363 15.1635C33.0421 15.1635 33.2025 17.5693 33.0421 18.5316ZM30.5562 16.2862C29.5136 16.2862 29.4334 17.4089 29.4334 17.4089H31.6788C31.6788 17.4089 31.5986 16.2862 30.5562 16.2862Z" fill="white"/>
<path d="M20.6423 16.6249L20.8829 15.3418C20.8829 15.3418 19.0249 14.778 17.5148 15.823V20.9552H19.1187L19.1186 16.7853C19.7601 16.3041 20.6423 16.6249 20.6423 16.6249Z" fill="white"/>
<path d="M16.2595 18.5316H12.6508C12.6508 18.5316 12.731 19.7347 14.3348 19.7347C15.1367 19.7347 15.9386 19.4939 15.9386 19.4939L16.0991 20.777C16.0991 20.777 15.2971 21.0978 14.1744 21.0978C12.5705 21.0978 11.1271 20.2958 11.1271 18.0505C11.1271 16.2862 12.2498 15.1635 13.8537 15.1635C16.2595 15.1635 16.4198 17.5693 16.2595 18.5316ZM13.7734 16.2862C12.731 16.2862 12.6508 17.4089 12.6508 17.4089H14.8962C14.8962 17.4089 14.816 16.2862 13.7734 16.2862Z" fill="white"/>
<path d="M24.5375 19.0318C24.0389 17.8193 23.6367 16.5694 23.3346 15.2937L21.7308 15.2939C21.7308 15.2939 22.5327 18.39 23.8961 20.9555H25.1788C26.5422 18.39 27.3441 15.2945 27.3441 15.2945H25.7404C25.4382 16.5699 25.036 17.8195 24.5375 19.0318Z" fill="white"/>
</g>
<defs>
<clipPath id="clip0_129_1100">
<rect width="35" height="35" fill="white"/>
</clipPath>
</defs>
</svg>
