<svg width="35" height="35" viewBox="0 0 35 35" fill="none" xmlns="http://www.w3.org/2000/svg">
<path d="M13.1564 21.9302L14.6533 13.1461H17.0475L15.5495 21.9302H13.1564ZM24.1998 13.3355C23.7255 13.1575 22.9822 12.9665 22.054 12.9665C19.688 12.9665 18.0216 14.1579 18.0074 15.8654C17.994 17.1276 19.1972 17.8318 20.1053 18.2519C21.0373 18.6826 21.3506 18.9571 21.3461 19.3415C21.3401 19.9304 20.6019 20.1993 19.9136 20.1993C18.9554 20.1993 18.4463 20.0661 17.6599 19.7383L17.3513 19.5987L17.0153 21.5651C17.5746 21.8104 18.6087 22.0227 19.6824 22.0338C22.1993 22.0338 23.8332 20.856 23.8517 19.0325C23.8607 18.0332 23.2228 17.2729 21.8414 16.6459C21.0046 16.2395 20.4921 15.9684 20.4975 15.5569C20.4975 15.1918 20.9313 14.8013 21.8688 14.8013C22.6516 14.7892 23.2189 14.9599 23.6608 15.1379L23.8753 15.2392L24.1998 13.3355ZM30.3611 13.146H28.5111C27.938 13.146 27.509 13.3024 27.2573 13.8744L23.7015 21.9244H26.2157C26.2157 21.9244 26.6267 20.8421 26.7196 20.6044C26.9944 20.6044 29.4368 20.6081 29.786 20.6081C29.8576 20.9157 30.0773 21.9244 30.0773 21.9244H32.299L30.3611 13.1457V13.146ZM27.4257 18.8182C27.6238 18.3121 28.3797 16.3626 28.3797 16.3626C28.3656 16.386 28.5763 15.8541 28.6971 15.5243L28.8589 16.2816C28.8589 16.2816 29.3174 18.3784 29.4132 18.8181H27.4257V18.8182ZM11.1238 13.146L8.77976 19.1363L8.53005 17.919C8.09362 16.5157 6.73405 14.9953 5.21411 14.2342L7.3575 21.9162L9.89074 21.9134L13.6601 13.1459L11.1238 13.1458" fill="#0E4595"/>
<path d="M6.59259 13.1456H2.73177L2.70117 13.3284C5.70485 14.0555 7.69226 15.8126 8.51745 17.9242L7.67795 13.8875C7.53306 13.3313 7.1127 13.1652 6.59268 13.1459" fill="#F2AE14"/>
</svg>
